<svg height="512" viewBox="0 0 512 512" width="512" xmlns="http://www.w3.org/2000/svg"><g id="Filled_outline" data-name="Filled outline"><path d="m384 200v256a32 32 0 0 1 -32 32h-176a32 32 0 0 1 -32-32v-256a32 32 0 0 1 32-32h176a31.991 31.991 0 0 1 32 32z" fill="#f7afaf"/><path d="m384 200v256a32 32 0 0 1 -32 32h-80a32 32 0 0 0 32-32v-256a31.991 31.991 0 0 0 -32-32h80a31.991 31.991 0 0 1 32 32z" fill="#f1a9a9"/><path d="m432.645 216h-48.645v40h48a8 8 0 0 1 8 8v128a8 8 0 0 1 -8 8h-48v40h48.645a47.356 47.356 0 0 0 47.355-47.355v-129.29a47.356 47.356 0 0 0 -47.355-47.355z" fill="#a0dde5"/><path d="m168 104h192v64h-192z" fill="#a0dde5"/><path d="m312 104h48v64h-48z" fill="#92d8e0"/><path d="m384 200v84a20 20 0 0 0 -40 0v16a20 20 0 0 1 -40 0v-40a20 20 0 0 0 -40 0v88a20 20 0 0 1 -40 0v-64a20 20 0 0 0 -40 0v32a20 20 0 0 1 -40 0v-116a32 32 0 0 1 32-32h176a31.991 31.991 0 0 1 32 32z" fill="#ebebe9"/><path d="m384 200v84a20 20 0 0 0 -40 0v16a20 20 0 0 1 -40 0v-100a31.991 31.991 0 0 0 -32-32h80a31.991 31.991 0 0 1 32 32z" fill="#e0e0de"/><path d="m157.167 488h-47.633a50.968 50.968 0 0 1 -25.285-6.715 50.964 50.964 0 0 1 -18.964-69.534l13.43-23.5a50.964 50.964 0 0 1 69.534-18.964l2.593 1.482a50.96 50.96 0 0 1 15.486 13.671l25.572 34.1a43.417 43.417 0 0 1 4.1 45.46 43.416 43.416 0 0 1 -38.833 24z" fill="#f35244"/><path d="m360 41.19-17.12 30.81-17.78 32-17.77 32-17.78 32h-48l17.78-32 17.77-32 17.78-32 17.78-32 8.89-16 35.79 16z" fill="#e0e0de"/><path d="m307.33 136-17.78 32h-48l17.78-32z" fill="#88c4cc"/><path d="m325.1 104-17.77 32h-48l17.77-32z" fill="#cf3b2e"/><path d="m360 41.19-17.12 30.81h-48l17.78-32h44.68z" fill="#f35244"/><path d="m384 216h24v40h-24z" fill="#92d8e0"/><path d="m384 400h24v40h-24z" fill="#92d8e0"/><path d="m432.645 208h-40.645v-8a40.033 40.033 0 0 0 -24-36.674v-59.326a8 8 0 0 0 -8-8h-21.3l28.291-50.925a8 8 0 0 0 -3.727-11.188l-2.661-1.19-35.788-16a8 8 0 0 0 -10.258 3.418l-42.157 75.885h-104.4a8 8 0 0 0 -8 8v59.35a40.051 40.051 0 0 0 -24 36.65v144h16v-2.689a28.022 28.022 0 0 0 40-25.311v-32a12 12 0 0 1 24 0v64a28 28 0 0 0 56 0v-88a12 12 0 0 1 24 0v40a28 28 0 0 0 56 0v-16a12 12 0 0 1 24 0v172a24.027 24.027 0 0 1 -24 24h-136v16h136a40.045 40.045 0 0 0 40-40v-8h40.645a55.418 55.418 0 0 0 55.355-55.355v-129.29a55.418 55.418 0 0 0 -55.355-55.355zm-80.645-96v16h-16v16h16v16h-48.854l26.667-48zm-52.41-32h29.7l-8.89 16h-29.7zm17.778-32h29.695l-8.89 16h-29.694zm-14.748 80h-29.7l8.889-16h29.694zm-38.584 16h29.695l-8.888 16h-29.7zm-88.036 0h56v-16h-56v-16h87.507l-26.665 48h-60.842zm188 112a28.007 28.007 0 0 0 -28 28v16a12 12 0 0 1 -24 0v-40a28 28 0 0 0 -56 0v88a12 12 0 0 1 -24 0v-64a28 28 0 0 0 -56 0v32a12 12 0 0 1 -24 0v-116a24.027 24.027 0 0 1 24-24h176a23.992 23.992 0 0 1 24 24v58.707a27.838 27.838 0 0 0 -12-2.707zm28 8h40v128h-40zm80 128.645a39.4 39.4 0 0 1 -39.355 39.355h-40.645v-24h40a16.019 16.019 0 0 0 16-16v-128a16.019 16.019 0 0 0 -16-16h-40v-24h40.645a39.4 39.4 0 0 1 39.355 39.355z"/><path d="m172.729 379.638a58.6 58.6 0 0 0 -17.917-15.816l-2.594-1.483a59.01 59.01 0 0 0 -68.335 7.024l4.008-24.048-15.782-2.63-6.19 37.14a62.993 62.993 0 0 1 -17.919-43.825h-16a79.1 79.1 0 0 0 25.167 57.622l-30.167 24.131 10 12.494 17.305-13.847a58.959 58.959 0 0 0 55.229 79.6h47.633a51.416 51.416 0 0 0 41.133-82.266zm16.116 80.784a35.225 35.225 0 0 1 -31.678 19.578h-47.633a42.964 42.964 0 0 1 -37.3-64.28l1.432-2.506 15.182 30.364 14.31-7.156-18.214-36.422h35.056v-16h-28.252a42.677 42.677 0 0 1 19.912-11.916 43.192 43.192 0 0 1 11.372-1.532 42.727 42.727 0 0 1 21.247 5.678l2.595 1.484a42.7 42.7 0 0 1 13.054 11.523l25.572 34.1a35.222 35.222 0 0 1 3.345 37.085z"/><path d="m128 400h16v16h-16z"/><path d="m152 432h16v16h-16z"/><path d="m112 440h16v16h-16z"/></g></svg>