<svg height="512" viewBox="0 0 64 64" width="512" xmlns="http://www.w3.org/2000/svg"><path d="m21 52h25v6h-25z" fill="#ccdce5"/><path d="m21 52h25v3h-25z" fill="#abbac2"/><path d="m20 32h-5l-.12-3-4.21-14.07a2.869 2.869 0 1 1 5.56-1.39l3.13 15.46z" fill="#3890ce"/><path d="m22 53a12.46 12.46 0 0 1 -12.36-10.92l-1.64-13.08h48l-1.64 13.08a12.439 12.439 0 0 1 -1.4 4.38l.04 6.54z" fill="#ccdce5"/><path d="m60 61h-56l-1-4h58z" fill="#3890ce"/><path d="m53 57h-18a4 4 0 0 1 -4-4 7.289 7.289 0 0 1 5.483-7.079 31.137 31.137 0 0 1 15.034 0 7.289 7.289 0 0 1 5.483 7.079 4 4 0 0 1 -4 4z" fill="#ecaf4a"/><path d="m3.03 61.243a1 1 0 0 0 .97.757h56a1 1 0 0 0 .97-.757l1-4a1 1 0 0 0 -.97-1.243h-4.026a4.948 4.948 0 0 0 1.026-3 8.3 8.3 0 0 0 -3.734-6.947 13.539 13.539 0 0 0 1.087-3.848l1.639-13.08a1 1 0 0 0 -.992-1.125h-35.822l-2.967-14.655a3.862 3.862 0 0 0 -4.731-2.986 3.863 3.863 0 0 0 -2.768 4.858l3.825 12.783h-5.537a1 1 0 0 0 -.992 1.125l1.639 13.075a13.481 13.481 0 0 0 11.353 11.637v2.163h-17a1 1 0 0 0 -.97 1.243zm52.97-8.243a3 3 0 0 1 -3 3h-18a3 3 0 0 1 -3-3 6.282 6.282 0 0 1 4.728-6.11c.419-.106.846-.191 1.272-.279v5.389h2v-5.729a30.079 30.079 0 0 1 3-.241v3.97h2v-3.97a30.079 30.079 0 0 1 3 .241v5.729h2v-5.389c.426.088.853.173 1.272.279a6.282 6.282 0 0 1 4.728 6.11zm-44.372-38.356a1.862 1.862 0 0 1 1.334-2.344 1.891 1.891 0 0 1 .458-.06 1.868 1.868 0 0 1 1.83 1.5l2.887 14.26h-2.513zm-1 27.312-1.495-11.956h45.734l-1.5 11.955a11.5 11.5 0 0 1 -.894 3.212c-.232-.081-.469-.154-.711-.215a32.284 32.284 0 0 0 -15.526 0 8.264 8.264 0 0 0 -6.169 7.048h-8.067a11.479 11.479 0 0 1 -11.368-10.044zm11.372 12.044h8.1a4.954 4.954 0 0 0 .925 2h-9.025zm13 4h24.719l-.5 2h-54.438l-.5-2z"/><path d="m23 48h2v2h-2z"/><path d="m14.6 41.465-.7-5.589-1.984.248.7 5.589a9.444 9.444 0 0 0 8.27 8.221l.236-1.986a7.446 7.446 0 0 1 -6.522-6.483z"/><path d="m29 22h5.54a5.969 5.969 0 0 0 -1.54 4h2a4 4 0 0 1 4-4h9a3.5 3.5 0 0 0 0-7h-17.5a1.5 1.5 0 0 1 0-3h19.5a7.008 7.008 0 0 0 7-7h-2a5.006 5.006 0 0 1 -5 5h-.54a5.969 5.969 0 0 0 1.54-4h-2a4 4 0 0 1 -4 4h-14.5a3.5 3.5 0 0 0 0 7h17.5a1.5 1.5 0 0 1 0 3h-19a6.006 6.006 0 0 0 -6 6h2a4 4 0 0 1 4-4z"/></svg>